<mxfile host="app.diagrams.net" modified="2024-03-28T06:15:56.707Z" agent="Mozilla/5.0 (Windows NT 10.0; Win64; x64) AppleWebKit/537.36 (KHTML, like Gecko) Chrome/123.0.0.0 Safari/537.36" etag="ZmexKVDy0YqxBgjYPTor" version="22.1.17" type="github">
  <diagram name="Page-1" id="c4acf3e9-155e-7222-9cf6-157b1a14988f">
    <mxGraphModel dx="1400" dy="696" grid="1" gridSize="10" guides="1" tooltips="1" connect="1" arrows="1" fold="1" page="1" pageScale="1" pageWidth="850" pageHeight="1100" background="none" math="0" shadow="0">
      <root>
        <mxCell id="0" />
        <mxCell id="1" parent="0" />
        <mxCell id="ezTUXahELedn0casmf4j-7" value="" style="whiteSpace=wrap;html=1;aspect=fixed;" vertex="1" parent="1">
          <mxGeometry x="60" width="1140" height="1140" as="geometry" />
        </mxCell>
        <mxCell id="ezTUXahELedn0casmf4j-11" value="&lt;font style=&quot;font-size: 21px;&quot;&gt;Address&lt;/font&gt;" style="swimlane;fontStyle=0;childLayout=stackLayout;horizontal=1;startSize=26;fillColor=none;horizontalStack=0;resizeParent=1;resizeParentMax=0;resizeLast=0;collapsible=1;marginBottom=0;whiteSpace=wrap;html=1;" vertex="1" parent="1">
          <mxGeometry x="530" y="290" width="150" height="234" as="geometry" />
        </mxCell>
        <mxCell id="ezTUXahELedn0casmf4j-12" value="&lt;font style=&quot;font-size: 14px;&quot;&gt;+String :village&lt;/font&gt;" style="text;strokeColor=none;fillColor=none;align=left;verticalAlign=top;spacingLeft=4;spacingRight=4;overflow=hidden;rotatable=0;points=[[0,0.5],[1,0.5]];portConstraint=eastwest;whiteSpace=wrap;html=1;" vertex="1" parent="ezTUXahELedn0casmf4j-11">
          <mxGeometry y="26" width="150" height="26" as="geometry" />
        </mxCell>
        <mxCell id="ezTUXahELedn0casmf4j-13" value="&lt;font style=&quot;font-size: 14px;&quot;&gt;+String : street&amp;nbsp;&lt;/font&gt;" style="text;strokeColor=none;fillColor=none;align=left;verticalAlign=top;spacingLeft=4;spacingRight=4;overflow=hidden;rotatable=0;points=[[0,0.5],[1,0.5]];portConstraint=eastwest;whiteSpace=wrap;html=1;" vertex="1" parent="ezTUXahELedn0casmf4j-11">
          <mxGeometry y="52" width="150" height="32" as="geometry" />
        </mxCell>
        <mxCell id="ezTUXahELedn0casmf4j-58" value="&lt;font style=&quot;font-size: 14px;&quot;&gt;+String : doorNo&lt;/font&gt;" style="text;strokeColor=none;fillColor=none;align=left;verticalAlign=top;spacingLeft=4;spacingRight=4;overflow=hidden;rotatable=0;points=[[0,0.5],[1,0.5]];portConstraint=eastwest;whiteSpace=wrap;html=1;" vertex="1" parent="ezTUXahELedn0casmf4j-11">
          <mxGeometry y="84" width="150" height="30" as="geometry" />
        </mxCell>
        <mxCell id="ezTUXahELedn0casmf4j-30" value="&lt;font style=&quot;font-size: 14px;&quot;&gt;+String : doorNo&lt;/font&gt;" style="text;strokeColor=none;fillColor=none;align=left;verticalAlign=top;spacingLeft=4;spacingRight=4;overflow=hidden;rotatable=0;points=[[0,0.5],[1,0.5]];portConstraint=eastwest;whiteSpace=wrap;html=1;" vertex="1" parent="ezTUXahELedn0casmf4j-11">
          <mxGeometry y="114" width="150" height="30" as="geometry" />
        </mxCell>
        <mxCell id="ezTUXahELedn0casmf4j-31" value="&lt;font style=&quot;font-size: 14px;&quot;&gt;+String : district&lt;/font&gt;" style="text;strokeColor=none;fillColor=none;align=left;verticalAlign=top;spacingLeft=4;spacingRight=4;overflow=hidden;rotatable=0;points=[[0,0.5],[1,0.5]];portConstraint=eastwest;whiteSpace=wrap;html=1;" vertex="1" parent="ezTUXahELedn0casmf4j-11">
          <mxGeometry y="144" width="150" height="30" as="geometry" />
        </mxCell>
        <mxCell id="ezTUXahELedn0casmf4j-33" value="&lt;font style=&quot;font-size: 14px;&quot;&gt;+int :&amp;nbsp; pinCode&lt;/font&gt;" style="text;strokeColor=none;fillColor=none;align=left;verticalAlign=top;spacingLeft=4;spacingRight=4;overflow=hidden;rotatable=0;points=[[0,0.5],[1,0.5]];portConstraint=eastwest;whiteSpace=wrap;html=1;" vertex="1" parent="ezTUXahELedn0casmf4j-11">
          <mxGeometry y="174" width="150" height="30" as="geometry" />
        </mxCell>
        <mxCell id="ezTUXahELedn0casmf4j-34" value="&lt;span style=&quot;font-size: 14px;&quot;&gt;+String: country&lt;/span&gt;" style="text;strokeColor=none;fillColor=none;align=left;verticalAlign=top;spacingLeft=4;spacingRight=4;overflow=hidden;rotatable=0;points=[[0,0.5],[1,0.5]];portConstraint=eastwest;whiteSpace=wrap;html=1;" vertex="1" parent="ezTUXahELedn0casmf4j-11">
          <mxGeometry y="204" width="150" height="30" as="geometry" />
        </mxCell>
        <mxCell id="ezTUXahELedn0casmf4j-36" value="&lt;font style=&quot;font-size: 21px;&quot;&gt;User&lt;/font&gt;" style="swimlane;fontStyle=0;childLayout=stackLayout;horizontal=1;startSize=26;fillColor=none;horizontalStack=0;resizeParent=1;resizeParentMax=0;resizeLast=0;collapsible=1;marginBottom=0;whiteSpace=wrap;html=1;" vertex="1" parent="1">
          <mxGeometry x="200" y="80" width="140" height="70" as="geometry" />
        </mxCell>
        <mxCell id="ezTUXahELedn0casmf4j-37" value="&lt;font style=&quot;font-size: 14px;&quot;&gt;+ String: name&lt;/font&gt;" style="text;strokeColor=none;fillColor=none;align=left;verticalAlign=top;spacingLeft=4;spacingRight=4;overflow=hidden;rotatable=0;points=[[0,0.5],[1,0.5]];portConstraint=eastwest;whiteSpace=wrap;html=1;strokeWidth=15;" vertex="1" parent="ezTUXahELedn0casmf4j-36">
          <mxGeometry y="26" width="140" height="22" as="geometry" />
        </mxCell>
        <mxCell id="ezTUXahELedn0casmf4j-45" value="&lt;span style=&quot;font-size: 14px;&quot;&gt;+Address: address&lt;br&gt;&lt;br&gt;&lt;/span&gt;" style="text;strokeColor=none;fillColor=none;align=left;verticalAlign=top;spacingLeft=4;spacingRight=4;overflow=hidden;rotatable=0;points=[[0,0.5],[1,0.5]];portConstraint=eastwest;whiteSpace=wrap;html=1;strokeWidth=15;" vertex="1" parent="ezTUXahELedn0casmf4j-36">
          <mxGeometry y="48" width="140" height="22" as="geometry" />
        </mxCell>
        <mxCell id="ezTUXahELedn0casmf4j-51" value="&lt;pre style=&quot;font-family: &amp;quot;JetBrains Mono&amp;quot;, monospace; font-size: 21px;&quot;&gt;&lt;span style=&quot;background-color: rgb(255, 255, 255);&quot;&gt;Restaurants&lt;/span&gt;&lt;/pre&gt;" style="swimlane;fontStyle=0;childLayout=stackLayout;horizontal=1;startSize=26;horizontalStack=0;resizeParent=1;resizeParentMax=0;resizeLast=0;collapsible=1;marginBottom=0;whiteSpace=wrap;html=1;" vertex="1" parent="1">
          <mxGeometry x="850" y="40" width="150" height="104" as="geometry" />
        </mxCell>
        <mxCell id="ezTUXahELedn0casmf4j-52" value="&lt;font style=&quot;font-size: 14px;&quot;&gt;+ String:name&lt;/font&gt;" style="text;strokeColor=none;fillColor=none;align=left;verticalAlign=top;spacingLeft=4;spacingRight=4;overflow=hidden;rotatable=0;points=[[0,0.5],[1,0.5]];portConstraint=eastwest;whiteSpace=wrap;html=1;" vertex="1" parent="ezTUXahELedn0casmf4j-51">
          <mxGeometry y="26" width="150" height="26" as="geometry" />
        </mxCell>
        <mxCell id="ezTUXahELedn0casmf4j-53" value="&lt;font style=&quot;font-size: 14px;&quot;&gt;+Food:typeOfFood&lt;/font&gt;" style="text;strokeColor=none;fillColor=none;align=left;verticalAlign=top;spacingLeft=4;spacingRight=4;overflow=hidden;rotatable=0;points=[[0,0.5],[1,0.5]];portConstraint=eastwest;whiteSpace=wrap;html=1;" vertex="1" parent="ezTUXahELedn0casmf4j-51">
          <mxGeometry y="52" width="150" height="26" as="geometry" />
        </mxCell>
        <mxCell id="ezTUXahELedn0casmf4j-54" value="&lt;font style=&quot;font-size: 14px;&quot;&gt;Address: address&lt;/font&gt;" style="text;strokeColor=none;fillColor=none;align=left;verticalAlign=top;spacingLeft=4;spacingRight=4;overflow=hidden;rotatable=0;points=[[0,0.5],[1,0.5]];portConstraint=eastwest;whiteSpace=wrap;html=1;" vertex="1" parent="ezTUXahELedn0casmf4j-51">
          <mxGeometry y="78" width="150" height="26" as="geometry" />
        </mxCell>
        <mxCell id="ezTUXahELedn0casmf4j-60" style="edgeStyle=orthogonalEdgeStyle;rounded=0;orthogonalLoop=1;jettySize=auto;html=1;exitX=0;exitY=0.5;exitDx=0;exitDy=0;entryX=1;entryY=0.5;entryDx=0;entryDy=0;" edge="1" parent="1" source="ezTUXahELedn0casmf4j-30" target="ezTUXahELedn0casmf4j-45">
          <mxGeometry relative="1" as="geometry" />
        </mxCell>
        <mxCell id="ezTUXahELedn0casmf4j-61" style="edgeStyle=orthogonalEdgeStyle;rounded=0;orthogonalLoop=1;jettySize=auto;html=1;exitX=1;exitY=0.5;exitDx=0;exitDy=0;" edge="1" parent="1" source="ezTUXahELedn0casmf4j-30" target="ezTUXahELedn0casmf4j-54">
          <mxGeometry relative="1" as="geometry" />
        </mxCell>
      </root>
    </mxGraphModel>
  </diagram>
</mxfile>
